<?xml version="1.0" standalone="no"?><!DOCTYPE svg PUBLIC "-//W3C//DTD SVG 1.1//EN" "http://www.w3.org/Graphics/SVG/1.1/DTD/svg11.dtd"><svg t="1543204584019" class="icon" style="" viewBox="0 0 1024 1024" version="1.1" xmlns="http://www.w3.org/2000/svg" p-id="4097" xmlns:xlink="http://www.w3.org/1999/xlink" width="200" height="200"><defs><style type="text/css"></style></defs><path d="M0 1024V0h1024" fill="#D11A2D" p-id="4098"></path><path d="M149.1 439.9L66.9 522l-21-21 82.1-82.1c-14.7-7.5-29.6-13.8-44.8-19l15.2-26.5c19.2 7.9 36 16.1 50.5 24.2l-0.5 0.9 83.7-83.7 21 21-82.4 82.4 47.1 47.1 71.5-71.5 20.1 20.1-71.4 71.4 55.2 55.2 90.3-90.3 21 21-202 202.2-21-21 90.1-90.1-55.2-55.2-71.4 71.2-20.1-20.1 71.3-71.3-47.1-47z m185.5-240.3l21.5-16.5c2.3 5 4.1 10 5.7 14.7l58.2-58.2 14.5 14.5c5.4 16.7 6.3 35.3 3.2 55.7 20.4-7.7 41.2-18.6 63.1-32.4l5 27.2c-26.7 15.4-51.6 26.7-75.1 33.9-8.6 25.8-22.6 53.9-41.9 84.4l-26.5-7.9c18.1-25.3 31.9-48.6 40.5-69.9-12.2 2.3-23.8 3.4-34.6 3.4-0.7 11.5-2.5 23.8-5.2 36.4l-27.4-3.8c8.5-31.3 8.1-58.5-1-81.5z m77 19c3.4-15.2 4.3-29.2 2.5-41.9l-46.8 46.8c0 0.9-0.2 1.6 0.2 2 14-0.4 28.9-2.6 44.1-6.9z m16.9 104.7c35.3-24.4 71.3-45.5 108.8-63.1l10.2 24.2c-38.2 17.9-75.1 38.9-111.1 63.1l-7.9-24.2z m-7.4-53.6c23.5-12.7 46.6-23.1 69-30.5l5.4 25.3c-24.9 7.2-48.2 17-70.1 29l-4.3-23.8z m10.4-210.9L632 259.3l-21 21-7.9-7.9-147.2 147.1 7.9 7.9-21 21L242.3 248 431.5 58.8z m5.4 341.7L584 253.4 429.4 98.9l-147 147 154.5 154.6z" fill="#F9F9F9" p-id="4099"></path></svg>